<mxfile host="app.diagrams.net" modified="2021-05-29T02:24:05.058Z" agent="5.0 (Windows NT 10.0; Win64; x64) AppleWebKit/537.36 (KHTML, like Gecko) Chrome/91.0.4472.77 Safari/537.36 Edg/91.0.864.37" etag="EDdIFIPtP0wnQ4fWW4M9" version="14.7.2" type="github">
  <diagram id="wQdEAC-WozWQwYWjz216" name="第 1 页">
    <mxGraphModel dx="1422" dy="833" grid="1" gridSize="10" guides="1" tooltips="1" connect="1" arrows="1" fold="1" page="1" pageScale="1" pageWidth="827" pageHeight="1169" background="none" math="0" shadow="1">
      <root>
        <mxCell id="0" />
        <mxCell id="1" parent="0" />
        <mxCell id="uKr5qRgz3sTH-jB_qJUX-6" style="edgeStyle=orthogonalEdgeStyle;orthogonalLoop=1;jettySize=auto;html=1;exitX=0.5;exitY=1;exitDx=0;exitDy=0;entryX=0.5;entryY=0;entryDx=0;entryDy=0;fontSize=14;curved=1;" edge="1" parent="1" source="uKr5qRgz3sTH-jB_qJUX-1" target="uKr5qRgz3sTH-jB_qJUX-5">
          <mxGeometry relative="1" as="geometry" />
        </mxCell>
        <mxCell id="uKr5qRgz3sTH-jB_qJUX-1" value="输入参数1" style="whiteSpace=wrap;html=1;fontSize=14;rounded=1;" vertex="1" parent="1">
          <mxGeometry x="90" y="130" width="80" height="40" as="geometry" />
        </mxCell>
        <mxCell id="uKr5qRgz3sTH-jB_qJUX-2" value="输入参数2" style="whiteSpace=wrap;html=1;fontSize=14;rounded=1;" vertex="1" parent="1">
          <mxGeometry x="190" y="130" width="80" height="40" as="geometry" />
        </mxCell>
        <mxCell id="uKr5qRgz3sTH-jB_qJUX-8" style="edgeStyle=orthogonalEdgeStyle;orthogonalLoop=1;jettySize=auto;html=1;exitX=0.5;exitY=1;exitDx=0;exitDy=0;entryX=0.5;entryY=0;entryDx=0;entryDy=0;fontSize=14;curved=1;" edge="1" parent="1" source="uKr5qRgz3sTH-jB_qJUX-3" target="uKr5qRgz3sTH-jB_qJUX-5">
          <mxGeometry relative="1" as="geometry" />
        </mxCell>
        <mxCell id="uKr5qRgz3sTH-jB_qJUX-3" value="输入参数n" style="whiteSpace=wrap;html=1;fontSize=14;rounded=1;" vertex="1" parent="1">
          <mxGeometry x="374" y="130" width="80" height="40" as="geometry" />
        </mxCell>
        <mxCell id="uKr5qRgz3sTH-jB_qJUX-4" value="……" style="text;html=1;resizable=0;autosize=1;align=center;verticalAlign=middle;points=[];fillColor=none;strokeColor=none;fontStyle=1;fontSize=28;rounded=1;" vertex="1" parent="1">
          <mxGeometry x="290" y="130" width="70" height="40" as="geometry" />
        </mxCell>
        <mxCell id="uKr5qRgz3sTH-jB_qJUX-10" style="edgeStyle=orthogonalEdgeStyle;orthogonalLoop=1;jettySize=auto;html=1;exitX=0.5;exitY=1;exitDx=0;exitDy=0;entryX=0.5;entryY=0;entryDx=0;entryDy=0;fontSize=14;curved=1;" edge="1" parent="1" source="uKr5qRgz3sTH-jB_qJUX-5" target="uKr5qRgz3sTH-jB_qJUX-9">
          <mxGeometry relative="1" as="geometry" />
        </mxCell>
        <mxCell id="uKr5qRgz3sTH-jB_qJUX-5" value="产生大量服从给定分布的n为输入量" style="whiteSpace=wrap;html=1;fontSize=14;rounded=1;" vertex="1" parent="1">
          <mxGeometry x="220" y="210" width="120" height="60" as="geometry" />
        </mxCell>
        <mxCell id="uKr5qRgz3sTH-jB_qJUX-13" style="edgeStyle=orthogonalEdgeStyle;orthogonalLoop=1;jettySize=auto;html=1;exitX=0.5;exitY=1;exitDx=0;exitDy=0;entryX=0.5;entryY=0;entryDx=0;entryDy=0;fontSize=14;curved=1;" edge="1" parent="1" source="uKr5qRgz3sTH-jB_qJUX-9" target="uKr5qRgz3sTH-jB_qJUX-11">
          <mxGeometry relative="1" as="geometry" />
        </mxCell>
        <mxCell id="uKr5qRgz3sTH-jB_qJUX-9" value="逸度模型计算" style="whiteSpace=wrap;html=1;fontSize=14;rounded=1;" vertex="1" parent="1">
          <mxGeometry x="220" y="290" width="120" height="60" as="geometry" />
        </mxCell>
        <mxCell id="uKr5qRgz3sTH-jB_qJUX-14" style="edgeStyle=orthogonalEdgeStyle;orthogonalLoop=1;jettySize=auto;html=1;exitX=0.5;exitY=1;exitDx=0;exitDy=0;entryX=0.5;entryY=0;entryDx=0;entryDy=0;fontSize=14;curved=1;" edge="1" parent="1" source="uKr5qRgz3sTH-jB_qJUX-11" target="uKr5qRgz3sTH-jB_qJUX-15">
          <mxGeometry relative="1" as="geometry">
            <mxPoint x="280" y="450" as="targetPoint" />
          </mxGeometry>
        </mxCell>
        <mxCell id="uKr5qRgz3sTH-jB_qJUX-11" value="排序输出量的n个计算结果" style="whiteSpace=wrap;html=1;fontSize=14;rounded=1;" vertex="1" parent="1">
          <mxGeometry x="220" y="370" width="120" height="60" as="geometry" />
        </mxCell>
        <mxCell id="uKr5qRgz3sTH-jB_qJUX-15" value="设定分位数值，取上下分位数，得到分位差" style="whiteSpace=wrap;html=1;fontSize=14;rounded=1;" vertex="1" parent="1">
          <mxGeometry x="220" y="450" width="120" height="60" as="geometry" />
        </mxCell>
      </root>
    </mxGraphModel>
  </diagram>
</mxfile>
